<?xml version="1.0" encoding="UTF-8"?>
<svg xmlns:xlink="http://www.w3.org/1999/xlink" width="47px" height="47px" viewBox="0 0 47 47" version="1.1"
     xmlns="http://www.w3.org/2000/svg">
    <!-- Generator: Sketch 55 (78076) - https://sketchapp.com -->
    <title>jersey - primary color</title>
    <desc>Created with Sketch.</desc>
    <g id="jersey---primary-color" stroke="none" stroke-width="1" fill-rule="evenodd">
        <g id="NFL-D_jerseys-28" transform="translate(2.000000, 1.000000)" fill-rule="nonzero">
            <polygon id="Shape"
                     points="42.650625 14.2695 42.381875 12.7935 41.0515625 5.9175 35.5645833 1.602 28.0440625 0.1575 28.0127083 0.1575 21.5089583 0.1575 14.9738542 0.1575 14.9425 0.1575 14.5976042 0.225 14.6020833 0.225 14.0511458 0.3375 7.45333333 1.602 1.9484375 5.9175 0.618125 12.7935 0.349375 14.2695 4.22385417 16.155 8.17895833 14.9535 9.69291667 42.777 21.5089583 44.8425 33.325 42.777 34.8389583 14.958 38.7761458 16.155"></polygon>
            <polygon id="Shape"
                     points="42.650625 14.2695 42.381875 12.7935 42.2967708 12.3615 42.2967708 12.3615 42.2027083 11.8665 42.2027083 11.8665 41.0515625 5.9175 35.5645833 1.602 28.0440625 0.1575 21.5089583 0.1575 14.9738542 0.1575 14.9425 0.1575 14.0511458 0.3375 7.45333333 1.602 1.9484375 5.9175 0.797291667 11.8665 0.797291667 11.8665 0.703229167 12.3615 0.703229167 12.3615 0.618125 12.7935 0.533020833 13.266 0.533020833 13.266 0.4434375 13.7565 0.4434375 13.7565 0.349375 14.2695 4.22385417 16.155 8.17895833 14.9535 9.69291667 42.777 21.5089583 44.8425 33.325 42.777 34.8389583 14.958 38.7761458 16.155"></polygon>
            <path d="M19.3141667,20.7 L19.5022917,20.7 C19.3858333,20.7 19.3141667,20.7 19.3141667,20.7 Z" id="Shape"
                  fill="#AF2B2B"></path>
        </g>
        <g id="Group" transform="translate(16.000000, 1.000000)"></g>
    </g>
</svg>