<?xml version="1.0" encoding="UTF-8"?>
<svg width="160px" height="160px" viewBox="0 0 260 272" version="1.1" xmlns="http://www.w3.org/2000/svg">
    <!-- Generator: Sketch 53.2 (72643) - https://sketchapp.com -->
    <title>poolsicon@3x</title>
    <desc>Created with Sketch.</desc>
    <g id="Private-Pools" stroke="none" stroke-width="1" fill="none" fill-rule="evenodd">
        <g id="Pools-Desktop" transform="translate(-292.000000, -167.000000)">
            <g id="header" transform="translate(-40.000000, 34.000000)">
                <g id="poolsicon" transform="translate(332.000000, 133.000000)">
                    <path d="M123.122,0.696 C121.874,0.696 120.658,1.26 119.854,2.289 L117.058,5.863 C116.717,6.305 116.403,6.762 116.154,7.175 L116.084,7.287 C116.056,7.332 116.034,7.367 116.008,7.414 C116.008,7.414 115.759,7.852 115.66,8.043 C114.986,9.351 114.517,10.814 114.269,12.368 L27.127,49.558 C20.095,52.36 15.375,59.374 15.375,67.03 L15.375,92.782 L8.76,92.782 C4.03,92.782 0.182,96.63 0.182,101.36 L0.182,174.457 C0.182,179.187 4.03,183.036 8.76,183.036 L15.375,183.036 L15.375,211.526 C15.375,219.182 20.095,226.196 27.127,228.999 L123.049,269.935 L123.167,269.986 C123.218,270.008 123.27,270.029 123.322,270.049 L123.447,270.097 C125.545,270.897 127.745,271.304 129.988,271.304 C132.229,271.304 134.43,270.897 136.528,270.096 L136.653,270.049 C136.702,270.029 136.752,270.01 136.8,269.989 L136.924,269.936 L232.847,228.999 C239.878,226.196 244.599,219.182 244.599,211.526 L244.599,183.036 L251.214,183.036 C255.945,183.036 259.792,179.187 259.792,174.457 L259.792,101.36 C259.792,96.63 255.945,92.782 251.214,92.782 L244.599,92.782 L244.599,67.03 C244.599,59.374 239.878,52.36 232.846,49.558 L161.977,19.313 L163.753,15.435 L166.024,10.867 C166.692,9.523 166.582,7.924 165.737,6.685 C164.96,5.545 163.674,4.873 162.311,4.873 C162.191,4.873 162.07,4.878 161.948,4.889 L156.801,5.339 C153.061,5.667 150.305,6.267 147.865,7.286 C147.865,7.286 147.865,7.286 147.866,7.286 C147.832,7.3 147.349,7.5 147.208,7.564 C146.956,7.678 146.677,7.816 146.365,7.983 C145.235,8.588 144.198,9.33 143.267,10.197 C142.711,10.284 142.153,10.403 141.602,10.554 C141.573,10.563 141.542,10.571 141.513,10.579 L136.925,8.621 L136.805,8.569 C136.754,8.548 136.703,8.527 136.653,8.508 L136.527,8.46 C136.172,8.325 135.802,8.199 135.408,8.081 C134.132,6.237 132.555,4.732 130.78,3.676 C130.26,3.366 129.647,3.058 128.955,2.756 C128.929,2.745 128.902,2.733 128.875,2.722 L124.696,1.007 C124.185,0.797 123.651,0.696 123.122,0.696 Z M123.12,4.844 L127.3,6.559 C127.676,6.723 128.201,6.967 128.657,7.239 C130.273,8.201 131.707,9.76 132.74,11.643 C132.906,11.679 133.062,11.746 133.225,11.79 C133.841,11.935 134.452,12.107 135.049,12.335 L135.174,12.383 L135.297,12.436 L141.349,15.018 L141.583,14.925 C141.937,14.785 142.3,14.663 142.699,14.554 C143.424,14.355 144.16,14.233 144.891,14.19 C144.99,14.184 145.093,14.18 145.196,14.176 C146.066,13.144 147.124,12.281 148.323,11.64 C148.544,11.521 148.742,11.422 148.948,11.329 C149.06,11.278 149.465,11.113 149.465,11.113 C151.476,10.272 153.867,9.759 157.162,9.471 L162.31,9.021 L160.01,13.647 L157.764,18.552 C157.324,19.513 156.915,20.499 156.526,21.495 L231.268,53.393 C236.768,55.563 240.451,61.023 240.451,67.03 L240.451,96.929 L251.214,96.929 C253.661,96.929 255.645,98.913 255.645,101.36 L255.645,174.457 C255.645,176.904 253.661,178.889 251.214,178.889 L240.451,178.889 L240.451,211.526 C240.451,217.533 236.768,222.992 231.268,225.163 L135.297,266.121 L135.174,266.174 L135.048,266.222 C133.425,266.842 131.722,267.156 129.988,267.156 C128.252,267.156 126.549,266.842 124.926,266.222 L124.8,266.174 L124.676,266.121 L28.706,225.163 C23.206,222.992 19.523,217.533 19.523,211.526 L19.523,178.889 L8.76,178.889 C6.313,178.889 4.329,176.904 4.329,174.457 L4.329,101.36 C4.329,98.913 6.313,96.929 8.76,96.929 L19.523,96.929 L19.523,67.03 C19.523,61.023 23.207,55.563 28.707,53.393 L118.209,15.195 C118.185,13.271 118.568,11.454 119.344,9.949 C119.419,9.804 119.609,9.472 119.609,9.472 L119.693,9.337 C119.857,9.064 120.082,8.733 120.324,8.418 L123.12,4.844 L123.12,4.844 Z"
                          id="Fill-1" fill="#AEAFAB"></path>
                    <path d="M130.013,263.683 C128.702,263.683 127.416,263.445 126.19,262.977 L30.048,221.949 C25.842,220.309 23.021,216.13 23.021,211.526 L23.021,67.031 C23.021,62.426 25.842,58.247 30.049,56.607 L126.19,15.579 C127.416,15.111 128.702,14.874 130.013,14.874 C131.323,14.874 132.609,15.111 133.835,15.579 L229.977,56.607 C234.184,58.247 237.004,62.426 237.004,67.031 L237.004,211.526 C237.004,216.13 234.184,220.309 229.978,221.949 L133.835,262.977 C132.609,263.445 131.323,263.683 130.013,263.683"
                          id="Fill-2" fill="#0A0B09"></path>
                    <path d="M130.013,11.4 C128.278,11.4 126.575,11.715 124.951,12.335 L124.825,12.383 L124.702,12.436 L28.732,53.393 C23.232,55.564 19.548,61.024 19.548,67.031 L19.548,211.526 C19.548,217.533 23.233,222.994 28.734,225.164 L124.702,266.121 L124.825,266.174 L124.951,266.222 C126.575,266.842 128.278,267.156 130.013,267.156 C131.747,267.156 133.45,266.842 135.074,266.222 L135.199,266.174 L135.323,266.121 L231.292,225.164 C236.792,222.994 240.477,217.533 240.477,211.526 L240.477,67.031 C240.477,61.024 236.793,55.564 231.294,53.393 L135.323,12.436 L135.199,12.383 L135.074,12.335 C133.45,11.715 131.747,11.4 130.013,11.4 Z M130.013,18.347 C130.888,18.347 131.763,18.506 132.597,18.824 L228.669,59.826 C231.591,60.941 233.531,63.816 233.531,67.031 L233.531,211.526 C233.531,214.74 231.591,217.615 228.669,218.731 L132.597,259.732 C131.763,260.051 130.888,260.21 130.013,260.21 C129.138,260.21 128.262,260.051 127.429,259.732 L31.357,218.731 C28.434,217.615 26.494,214.74 26.494,211.526 L26.494,67.031 C26.494,63.816 28.434,60.941 31.357,59.826 L127.429,18.824 C128.262,18.506 129.138,18.347 130.013,18.347 L130.013,18.347 Z"
                          id="Fill-3" fill="#0A0B09"></path>
                    <polyline id="Fill-4" fill="#61B510"
                              points="31.023 195.306 228.951 195.306 228.951 216.733 129.988 256.824 31.023 216.272 31.023 195.306"></polyline>
                    <path d="M252.465,96.929 L7.56,96.929 C5.79,96.929 4.355,98.364 4.355,100.134 L4.355,175.684 C4.355,177.453 5.79,178.889 7.56,178.889 L252.465,178.889 C254.236,178.889 255.671,177.453 255.671,175.684 L255.671,100.134 C255.671,98.364 254.236,96.929 252.465,96.929"
                          id="Fill-5" fill="#0A0B09"></path>
                    <polyline id="Fill-6" fill="#61B510"
                              points="45.959 91.332 45.959 87.735 50.198 87.735 50.198 89.808 51.082 90.692 54.008 90.692 54.892 89.808 54.892 85.906 54.222 85.205 48.368 85.205 46.051 82.919 46.051 75.693 48.764 72.979 56.386 72.979 59.07 75.663 59.07 79.26 54.831 79.26 54.831 77.187 53.946 76.303 51.173 76.303 50.288 77.187 50.288 80.936 50.96 81.607 56.813 81.607 59.099 83.925 59.099 91.303 56.386 94.016 48.642 94.016 45.959 91.332"></polyline>
                    <path d="M71.566,83.314 L72.481,82.37 L72.481,77.095 L71.566,76.15 L67.756,76.15 L67.756,83.314 L71.566,83.314 Z M63.517,72.979 L73.974,72.979 L76.718,75.754 L76.718,83.712 L73.974,86.486 L67.756,86.486 L67.756,94.016 L63.517,94.016 L63.517,72.979 L63.517,72.979 Z"
                          id="Fill-7" fill="#61B510"></path>
                    <path d="M88.697,90.663 L89.702,89.656 L89.702,77.339 L88.697,76.333 L85.769,76.333 L84.763,77.339 L84.763,89.656 L85.769,90.663 L88.697,90.663 Z M80.555,91.242 L80.555,75.754 L83.329,72.979 L91.165,72.979 L93.94,75.754 L93.94,91.242 L91.165,94.016 L83.329,94.016 L80.555,91.242 L80.555,91.242 Z"
                          id="Fill-8" fill="#61B510"></path>
                    <path d="M106.862,82.431 L107.836,81.456 L107.836,77.065 L106.891,76.12 L102.868,76.12 L102.868,82.431 L106.862,82.431 Z M98.629,72.979 L109.362,72.979 L112.043,75.693 L112.043,82.736 L109.758,85.022 L112.38,94.016 L108.05,94.016 L105.734,85.571 L102.868,85.571 L102.868,94.016 L98.629,94.016 L98.629,72.979 L98.629,72.979 Z"
                          id="Fill-9" fill="#61B510"></path>
                    <polyline id="Fill-10" fill="#61B510"
                              points="119.815 76.638 115.363 76.638 115.363 72.979 128.473 72.979 128.473 76.638 124.052 76.638 124.052 94.016 119.815 94.016 119.815 76.638"></polyline>
                    <polyline id="Fill-11" fill="#61B510"
                              points="131.7 91.332 131.7 87.735 135.939 87.735 135.939 89.808 136.823 90.692 139.749 90.692 140.633 89.808 140.633 85.906 139.963 85.205 134.11 85.205 131.792 82.919 131.792 75.693 134.505 72.979 142.127 72.979 144.811 75.663 144.811 79.26 140.572 79.26 140.572 77.187 139.688 76.303 136.913 76.303 136.03 77.187 136.03 80.936 136.7 81.607 142.555 81.607 144.84 83.925 144.84 91.303 142.127 94.016 134.383 94.016 131.7 91.332"></polyline>
                    <path d="M157.46,90.785 L158.344,89.9 L158.344,85.845 L157.338,84.839 L153.527,84.839 L153.527,90.785 L157.46,90.785 Z M157.338,81.639 L158.344,80.633 L158.344,77.095 L157.429,76.181 L153.527,76.181 L153.527,81.639 L157.338,81.639 Z M149.319,72.979 L159.929,72.979 L162.581,75.632 L162.581,81.029 L160.386,83.224 L162.581,85.419 L162.581,91.364 L159.929,94.016 L149.319,94.016 L149.319,72.979 L149.319,72.979 Z"
                          id="Fill-12" fill="#61B510"></path>
                    <path d="M175.077,90.663 L176.083,89.656 L176.083,77.339 L175.077,76.333 L172.15,76.333 L171.144,77.339 L171.144,89.656 L172.15,90.663 L175.077,90.663 Z M166.937,91.242 L166.937,75.754 L169.71,72.979 L177.546,72.979 L180.321,75.754 L180.321,91.242 L177.546,94.016 L169.71,94.016 L166.937,91.242 L166.937,91.242 Z"
                          id="Fill-13" fill="#61B510"></path>
                    <path d="M192.97,90.663 L193.976,89.656 L193.976,77.339 L192.97,76.333 L190.042,76.333 L189.036,77.339 L189.036,89.656 L190.042,90.663 L192.97,90.663 Z M184.829,91.242 L184.829,75.754 L187.604,72.979 L195.44,72.979 L198.213,75.754 L198.213,91.242 L195.44,94.016 L187.604,94.016 L184.829,91.242 L184.829,91.242 Z"
                          id="Fill-14" fill="#61B510"></path>
                    <polyline id="Fill-15" fill="#61B510"
                              points="209.519 85.205 207.142 89.869 207.142 94.016 202.904 94.016 202.904 72.979 207.142 72.979 207.142 83.986 212.232 72.979 216.684 72.979 212.385 81.7 216.898 94.016 212.415 94.016 209.519 85.205"></polyline>
                    <path d="M130.006,18.347 C129.131,18.347 128.256,18.506 127.422,18.824 L31.35,59.826 C28.427,60.941 26.488,63.816 26.488,67.031 L26.488,211.526 C26.488,214.74 28.427,217.615 31.35,218.731 L127.422,259.732 C128.256,260.051 129.131,260.21 130.006,260.21 C130.881,260.21 131.756,260.051 132.59,259.732 L228.662,218.731 C231.584,217.615 233.525,214.74 233.525,211.526 L233.525,67.031 C233.525,63.816 231.584,60.941 228.662,59.826 L132.59,18.824 C131.756,18.506 130.881,18.347 130.006,18.347 Z M130.006,36.233 L216.498,73.146 L216.498,205.41 L130.006,242.323 L43.513,205.41 L43.513,73.146 L130.006,36.233 L130.006,36.233 Z"
                          id="Fill-16" fill="#0A0B09"></path>
                    <path d="M129.988,18.302 C129.112,18.302 128.237,18.461 127.404,18.779 L31.331,59.78 C28.409,60.896 26.469,63.771 26.469,66.985 L26.469,211.48 C26.469,214.695 28.409,217.57 31.331,218.686 L127.404,259.687 C128.237,260.006 129.112,260.165 129.988,260.165 C130.863,260.165 131.738,260.006 132.572,259.687 L228.644,218.686 C231.566,217.57 233.506,214.695 233.506,211.48 L233.506,66.985 C233.506,63.771 231.566,60.896 228.644,59.78 L132.572,18.779 C131.738,18.461 130.863,18.302 129.988,18.302 Z M129.988,23.977 C130.155,23.977 130.321,24.004 130.481,24.058 L226.416,65 L226.517,65.043 L226.619,65.082 C227.344,65.359 227.83,66.124 227.83,66.985 L227.83,211.48 C227.83,212.343 227.344,213.107 226.619,213.384 L226.517,213.423 L226.416,213.466 L130.481,254.409 C130.321,254.463 130.155,254.489 129.988,254.489 C129.82,254.489 129.655,254.463 129.493,254.409 L33.559,213.466 L33.458,213.423 L33.355,213.384 C32.631,213.107 32.144,212.343 32.144,211.48 L32.144,66.985 C32.144,66.124 32.631,65.359 33.355,65.082 L33.458,65.043 L33.559,65 L129.493,24.058 C129.655,24.004 129.82,23.977 129.988,23.977 L129.988,23.977 Z"
                          id="Fill-17" fill="#61B510"></path>
                    <path d="M128.913,68.926 C127.964,68.926 127.003,68.883 126.058,68.799 C124.544,68.665 123.047,68.421 121.612,68.074 C120.081,67.704 118.615,67.194 117.25,66.559 C115.775,65.873 114.436,65.028 113.272,64.05 C112.433,63.349 111.662,62.528 110.983,61.614 C110.276,60.662 109.697,59.63 109.265,58.549 C108.811,57.415 108.524,56.218 108.41,54.99 L108.391,54.726 C108.302,53.421 108.438,52.129 108.795,50.882 C109.416,48.842 110.433,47.223 111.844,45.974 C111.895,45.929 111.947,45.884 111.998,45.84 C110.647,44.062 109.555,42.684 108.838,41.855 L108.258,41.198 C107.49,40.34 106.724,39.527 105.979,38.783 C105.727,38.531 105.477,38.286 105.23,38.049 C103.344,36.242 101.482,34.652 99.698,33.326 C99.698,33.326 95.915,30.682 95.906,30.676 L92.348,28.229 L95.961,25.865 C96.346,25.613 99.815,23.386 103.055,22.767 C103.131,22.75 103.542,22.687 103.542,22.687 C103.634,22.673 103.799,22.654 103.97,22.642 C104.182,22.626 104.416,22.617 104.651,22.617 C105.961,22.617 107.274,22.892 108.572,23.438 C109.72,22.799 110.91,22.399 112.128,22.247 L114.178,21.988 L115.608,18.895 C115.665,18.77 115.731,18.637 115.797,18.507 C115.896,18.313 115.994,18.134 116.095,17.962 C116.289,17.629 116.502,17.309 116.728,17.004 C117.174,16.402 117.676,15.854 118.23,15.364 C118.18,13.376 118.57,11.499 119.37,9.949 C119.445,9.804 119.634,9.472 119.634,9.472 L119.718,9.337 C119.882,9.064 120.108,8.733 120.35,8.418 L123.147,4.844 L127.325,6.559 C127.701,6.723 128.227,6.967 128.683,7.239 C130.299,8.201 131.733,9.76 132.766,11.643 C133.891,11.887 134.974,12.313 135.966,12.904 C136.267,13.082 136.569,13.283 136.857,13.497 L139.777,15.652 L141.609,14.925 C141.962,14.785 142.325,14.663 142.725,14.554 C143.449,14.355 144.186,14.233 144.916,14.19 C145.017,14.184 145.118,14.18 145.222,14.176 C146.092,13.144 147.15,12.281 148.348,11.64 C148.57,11.521 148.768,11.422 148.973,11.329 C149.085,11.278 149.49,11.113 149.49,11.113 C151.501,10.272 153.893,9.759 157.188,9.471 L162.336,9.021 L160.035,13.647 L157.789,18.552 C156.822,20.667 155.967,22.882 155.251,25.135 L155.186,25.336 L155.131,25.517 L155.089,25.655 C154.626,27.158 154.22,28.702 153.88,30.247 C153.778,30.716 153.657,31.316 153.52,32.03 C153.236,33.526 152.977,35.011 152.797,36.052 L152.573,37.371 C152.343,38.973 151.489,40.346 150.699,41.307 C150.723,41.388 150.75,41.479 150.774,41.569 C150.979,42.267 151.148,42.985 151.281,43.714 C151.539,45.152 151.65,46.641 151.61,48.146 C151.571,49.768 151.361,51.399 150.988,52.992 C150.795,53.82 150.556,54.64 150.279,55.425 C149.757,56.904 149.098,58.255 148.37,59.331 C148.241,59.548 148.051,59.84 147.862,60.112 C147.727,60.301 147.471,60.648 147.471,60.648 C146.916,61.362 146.125,62.295 145.446,62.935 C144.886,63.46 144.516,63.793 144.019,64.19 C142.545,65.37 140.87,66.351 139.042,67.103 C138.692,67.246 138.349,67.375 137.998,67.496 C137.043,67.83 135.991,68.118 134.885,68.343 C134.53,68.415 134.17,68.479 133.807,68.539 C132.767,68.722 131.842,68.826 130.927,68.86 L130.543,68.884 C130,68.913 129.452,68.926 128.913,68.926"
                          id="Fill-18" fill="#0A0B09"></path>
                    <path d="M150.549,13.81 C150.508,13.826 150.466,13.841 150.425,13.857 C150.338,13.893 150.251,13.93 150.165,13.97 C150.019,14.036 149.876,14.108 149.715,14.194 C148.442,14.877 147.383,15.905 146.658,17.147 C146.3,17.096 145.935,17.07 145.55,17.069 C145.395,17.069 145.239,17.073 145.085,17.083 C144.554,17.114 144.018,17.203 143.491,17.348 C143.2,17.428 142.935,17.516 142.677,17.618 L140.255,18.578 L141.021,21.068 C141.061,21.2 141.107,21.335 141.158,21.478 C141.176,21.525 141.195,21.572 141.217,21.629 C141.263,21.746 141.313,21.874 141.378,22.017 C141.539,22.372 141.728,22.715 141.941,23.041 C142.163,23.384 142.457,23.678 142.681,24.014 C142.681,24.014 142.245,24.337 141.879,24.211 C141.601,24.115 141.306,23.898 141.083,23.714 C140.679,23.379 138.71,21.652 138.71,21.652 C138.71,21.652 137.143,22.953 136.62,23.405 C136.108,23.85 135.537,24.441 134.828,23.946 C134.241,23.536 133.72,23.037 133.287,22.473 C134.234,21.839 135.04,20.994 135.646,19.977 C135.778,19.756 135.901,19.524 136.011,19.289 L136.99,17.196 L135.131,15.823 C134.923,15.669 134.705,15.524 134.484,15.393 C133.368,14.729 132.108,14.354 130.818,14.302 C130.074,12.403 128.742,10.646 127.199,9.727 C126.858,9.523 126.462,9.342 126.226,9.239 L124.076,8.357 L122.647,10.185 C122.47,10.415 122.305,10.656 122.156,10.901 C122.139,10.929 122.122,10.957 122.105,10.986 C122.049,11.082 121.994,11.18 121.945,11.277 C121.124,12.866 120.973,14.896 121.255,16.719 C120.403,17.238 119.656,17.918 119.057,18.728 C118.892,18.95 118.738,19.184 118.595,19.425 C118.523,19.549 118.451,19.68 118.376,19.826 C118.328,19.92 118.281,20.015 118.238,20.11 L117.266,22.211 L119.137,23.574 C119.346,23.727 119.565,23.87 119.786,24 C120.765,24.575 121.855,24.928 122.976,25.038 C122.858,25.485 122.74,25.932 122.623,26.378 C122.47,26.958 122.341,27.698 121.612,27.771 C121.01,27.831 118.011,27.135 118.011,27.135 C117.892,27.545 116.851,31.031 115.655,30.941 C115.624,30.938 115.593,30.936 115.562,30.933 C115.68,30.435 115.748,29.924 115.765,29.405 C115.775,29.121 115.769,28.833 115.747,28.55 C115.71,28.064 115.671,27.674 115.603,27.345 L115.073,24.796 L112.49,25.121 C110.998,25.309 109.73,26.026 108.758,26.784 C107.651,26.107 106.243,25.514 104.651,25.514 C104.49,25.514 104.328,25.52 104.17,25.532 C104.069,25.539 103.97,25.551 103.873,25.564 C103.855,25.567 103.836,25.571 103.819,25.574 C103.743,25.585 103.67,25.598 103.599,25.612 C100.828,26.142 97.548,28.289 97.548,28.289 C97.548,28.289 98.061,28.641 99.351,29.544 L101.329,30.929 L101.426,31.001 C103.305,32.398 105.26,34.066 107.236,35.958 C107.497,36.208 107.761,36.468 108.026,36.733 C108.81,37.517 109.611,38.364 110.417,39.267 C110.454,39.308 110.491,39.35 110.528,39.391 C110.664,39.544 110.8,39.698 110.937,39.854 C110.966,39.888 110.998,39.925 111.03,39.961 C111.97,41.049 113.491,42.99 115.335,45.457 C115.358,45.487 115.384,45.522 115.415,45.563 C115.692,45.947 116.063,46.289 116.49,46.584 C115.491,46.902 114.576,47.425 113.763,48.144 C112.759,49.032 112.03,50.206 111.594,51.631 L111.58,51.68 C111.316,52.604 111.215,53.561 111.281,54.524 L111.282,54.548 C111.286,54.605 111.29,54.663 111.295,54.724 C111.383,55.672 111.605,56.598 111.955,57.474 C112.294,58.322 112.75,59.134 113.309,59.887 C113.854,60.62 114.47,61.276 115.134,61.831 C116.103,62.645 117.226,63.352 118.473,63.933 C119.664,64.488 120.949,64.934 122.292,65.258 C123.589,65.571 124.942,65.792 126.315,65.914 C127.181,65.99 128.056,66.029 128.913,66.029 C129.404,66.029 129.9,66.017 130.387,65.991 C130.532,65.984 130.676,65.975 130.82,65.965 C131.596,65.936 132.399,65.845 133.338,65.68 C133.666,65.626 133.991,65.567 134.306,65.504 C135.279,65.306 136.206,65.054 137.055,64.757 C137.354,64.653 137.648,64.542 137.927,64.429 L137.939,64.424 C139.513,63.776 140.95,62.935 142.211,61.927 C142.648,61.578 142.971,61.285 143.46,60.825 C143.95,60.365 144.633,59.579 145.142,58.923 C145.142,58.923 145.373,58.612 145.485,58.454 C145.644,58.227 145.803,57.982 145.969,57.709 C146.561,56.834 147.106,55.711 147.548,54.461 C147.787,53.783 147.995,53.066 148.167,52.331 C148.495,50.93 148.679,49.497 148.715,48.071 C148.748,46.76 148.652,45.469 148.429,44.232 C148.316,43.602 148.17,42.984 147.997,42.397 C147.991,42.375 147.986,42.353 147.979,42.329 C147.943,42.198 147.903,42.065 147.859,41.932 L147.432,40.502 C147.739,40.249 147.999,39.991 148.2,39.769 C148.695,39.224 149.536,38.137 149.716,36.897 C149.739,36.761 149.823,36.259 149.942,35.562 C150.122,34.507 150.386,33.003 150.647,31.631 L150.658,31.568 L150.675,31.483 C150.818,30.74 150.944,30.114 151.051,29.625 C151.405,28.015 151.831,26.393 152.32,24.803 L152.355,24.689 C152.379,24.609 152.404,24.529 152.428,24.45 L152.49,24.256 C153.24,21.899 154.135,19.574 155.154,17.347 L157.209,12.85 C157.372,12.493 157.441,12.357 157.441,12.357 C154.693,12.598 152.461,13.012 150.549,13.81"
                          id="Fill-19" fill="#0A0B09"></path>
                    <path d="M151.333,16.537 C149.59,17.33 148.526,19.013 148.426,20.801 C148.423,20.802 148.424,20.802 148.421,20.803 C147.088,19.861 145.326,19.602 143.717,20.24 C143.78,20.445 143.855,20.649 143.946,20.849 C144.561,22.2 145.704,23.143 147.021,23.546 C146.28,24.694 145.297,25.688 144.125,26.448 C143.632,26.791 143.081,26.927 142.444,27.003 C140.856,27.193 139.381,26.37 138.664,25.044 C138.092,26.065 137.058,26.808 135.807,26.957 C135.129,27.038 134.472,26.933 133.885,26.684 C133.656,26.551 133.431,26.411 133.214,26.259 C131.935,25.367 130.864,24.167 130.124,22.733 C129.834,22.17 129.596,21.572 129.415,20.941 C129.444,20.938 129.472,20.936 129.5,20.933 C130.994,20.765 132.394,19.925 133.222,18.534 C133.309,18.389 133.386,18.242 133.456,18.093 C133.323,17.995 133.185,17.902 133.04,17.816 C131.798,17.077 130.363,16.941 129.077,17.323 C128.924,17.369 128.774,17.421 128.624,17.481 C128.676,15.735 127.365,13.108 125.757,12.151 C125.577,12.044 125.312,11.918 125.124,11.836 L124.982,11.777 L124.884,11.902 C124.76,12.064 124.643,12.235 124.536,12.416 C123.589,14.029 123.85,16.925 124.737,18.431 C124.577,18.45 124.42,18.476 124.264,18.51 C122.953,18.795 121.762,19.605 121.029,20.852 C120.944,20.997 120.866,21.145 120.798,21.294 C120.931,21.392 121.07,21.483 121.215,21.568 C122.611,22.388 124.242,22.449 125.633,21.877 C125.659,21.866 125.685,21.854 125.711,21.843 C125.857,22.482 125.936,23.122 125.953,23.755 C125.991,25.185 125.712,26.578 125.167,27.85 C125.164,27.841 125.162,27.832 125.159,27.822 C125.147,27.871 125.131,27.919 125.115,27.968 C125.061,28.091 125.004,28.213 124.945,28.333 C124.801,28.625 124.642,28.909 124.47,29.185 C124.069,29.689 123.533,30.099 122.891,30.352 C121.718,30.813 120.455,30.648 119.469,30.02 C119.464,31.527 118.555,32.949 117.067,33.534 C116.721,33.669 116.367,33.749 116.016,33.78 C114.429,33.754 112.897,33.342 111.539,32.609 C112.498,31.622 113.046,30.244 112.934,28.764 C112.917,28.545 112.885,28.141 112.841,27.931 C111.124,28.147 109.704,29.679 108.99,30.501 L108.986,30.501 C108.036,29.679 106.293,28.211 104.383,28.356 C103.935,28.39 103.514,28.594 103.109,28.737 C105.235,30.317 107.266,32.081 109.187,33.921 C110.533,35.21 111.826,36.586 113.06,37.996 C114.776,39.958 117.705,43.92 117.708,43.918 C118.068,44.423 119.535,45.075 120.527,44.977 C120.699,44.96 120.752,44.804 120.764,44.714 C120.779,44.61 120.598,44.548 120.506,44.508 C119.641,44.128 119.323,43.669 119.087,42.933 C118.536,41.204 123.705,38.084 131.262,36.167 C138.819,34.251 144.887,34.484 145.238,36.267 C145.386,37.025 145.329,37.582 144.754,38.331 C144.693,38.411 144.566,38.553 144.628,38.638 C144.682,38.71 144.804,38.825 144.964,38.756 C145.88,38.364 146.855,37.091 146.927,36.476 C146.927,36.476 147.738,31.565 148.296,29.02 C148.698,27.19 149.179,25.382 149.738,23.604 C150.533,21.065 151.487,18.583 152.588,16.174 C152.164,16.244 151.743,16.351 151.333,16.537"
                          id="Fill-20" fill="#FFFFFE"></path>
                    <path d="M124.544,39.994 C124.544,39.994 130.552,37.278 137.326,36.474 C137.326,36.474 145.909,37.714 145.909,47.789 C145.909,57.864 138.742,63.219 128.989,63.219 C119.235,63.219 114.091,58.919 114.091,54.339 C114.091,49.759 117.383,49.03 118.914,49.03 C120.446,49.03 123.214,50.412 123.214,54.001 C123.214,54.001 120.456,53.324 120.456,55.709 C120.456,58.093 123.717,59.578 128.185,59.578 C132.652,59.578 138.959,57.62 138.959,48.898 C138.959,39.593 134.654,39.178 131.66,39.178 L131.66,55.14 C131.66,55.14 131.74,56.543 133.226,56.543 C133.226,56.543 131.652,57.871 127.756,57.871 C123.86,57.871 122.75,56.622 122.75,56.622 C122.75,56.622 124.594,56.628 124.594,55.002 C124.594,53.376 124.544,39.994 124.544,39.994"
                          id="Fill-21" fill="#FFFFFE"></path>
                    <polyline id="Fill-22" fill="#5CAB45"
                              points="119.079 251.266 128.41 257.66 133.882 257.66 139.211 250.661 123.831 248.069 119.079 251.266"></polyline>
                    <polygon id="Fill-23" fill="#0A0B09"
                             points="18.107 178.889 45.958 178.889 45.958 96.929 18.107 96.929"></polygon>
                    <polygon id="Fill-24" fill="#0A0B09"
                             points="216.898 178.889 244.75 178.889 244.75 96.929 216.898 96.929"></polygon>
                    <path d="M43.519,137.386 L46.132,134.686 L46.132,119.618 L43.519,116.917 L32.632,116.917 L32.632,137.386 L43.519,137.386 Z M20.524,107.859 L50.4,107.859 L58.239,115.785 L58.239,138.519 L50.4,146.444 L32.632,146.444 L32.632,167.958 L20.524,167.958 L20.524,107.859 L20.524,107.859 Z"
                          id="Fill-25" fill="#FFFFFE"></path>
                    <path d="M90.286,158.378 L93.16,155.503 L93.16,120.314 L90.286,117.439 L81.924,117.439 L79.05,120.314 L79.05,155.503 L81.924,158.378 L90.286,158.378 Z M67.03,160.033 L67.03,115.785 L74.956,107.859 L97.342,107.859 L105.267,115.785 L105.267,160.033 L97.342,167.958 L74.956,167.958 L67.03,160.033 L67.03,160.033 Z"
                          id="Fill-26" fill="#FFFFFE"></path>
                    <path d="M139.232,158.378 L142.105,155.503 L142.105,120.314 L139.232,117.439 L130.869,117.439 L127.995,120.314 L127.995,155.503 L130.869,158.378 L139.232,158.378 Z M115.975,160.033 L115.975,115.785 L123.902,107.859 L146.285,107.859 L154.212,115.785 L154.212,160.033 L146.285,167.958 L123.902,167.958 L115.975,160.033 L115.975,160.033 Z"
                          id="Fill-27" fill="#FFFFFE"></path>
                    <polyline id="Fill-28" fill="#FFFFFE"
                              points="165.443 107.859 177.549 107.859 177.549 157.769 194.533 157.769 194.533 167.958 165.443 167.958 165.443 107.859"></polyline>
                    <polyline id="Fill-29" fill="#FFFFFE"
                              points="202.108 160.294 202.108 150.017 214.214 150.017 214.214 155.938 216.74 158.464 225.102 158.464 227.628 155.938 227.628 144.789 225.712 142.787 208.989 142.787 202.369 136.254 202.369 115.611 210.12 107.859 231.896 107.859 239.561 115.523 239.561 125.801 227.454 125.801 227.454 119.879 224.928 117.353 217.001 117.353 214.476 119.879 214.476 130.592 216.392 132.508 233.115 132.508 239.648 139.129 239.648 160.207 231.896 167.958 209.772 167.958 202.108 160.294"></polyline>
                    <path d="M105.134,249.623 C102.864,249.623 100.791,247.973 100.328,245.786 L88.218,189.345 C87.959,188.124 88.243,186.894 88.996,185.966 C89.297,185.595 89.66,185.285 90.069,185.047 C89.96,183.983 90.26,182.942 90.917,182.13 C91.688,181.179 92.871,180.633 94.164,180.633 L105.51,180.633 L107.36,189.339 L104.622,189.339 L105.438,193.176 L100.848,193.176 L110.277,237.092 L159.13,237.354 L149.712,193.176 L142.368,193.176 L140.519,184.47 L143.256,184.47 L142.441,180.633 L154.842,180.633 C157.124,180.633 159.196,182.282 159.661,184.469 L171.757,241.221 C172.015,242.437 171.731,243.666 170.978,244.596 C170.677,244.966 170.314,245.275 169.906,245.515 C170.014,246.575 169.715,247.618 169.057,248.431 C168.287,249.382 167.104,249.928 165.81,249.928 L105.134,249.623"
                          id="Fill-30" fill="#0A0B09"></path>
                    <path d="M154.842,178.148 L139.372,178.148 L140.188,181.985 L137.449,181.985 L140.357,195.66 L147.701,195.66 L156.056,234.853 L112.286,234.618 L103.923,195.66 L108.506,195.66 L107.691,191.823 L110.428,191.823 L107.522,178.148 L94.164,178.148 C92.118,178.148 90.231,179.029 88.988,180.565 C88.227,181.505 87.758,182.627 87.612,183.809 C87.418,183.994 87.236,184.191 87.065,184.402 C85.838,185.917 85.372,187.904 85.786,189.855 L97.9,246.312 C98.601,249.612 101.717,252.107 105.147,252.107 L165.784,252.412 C167.857,252.412 169.743,251.531 170.988,249.995 C171.748,249.056 172.216,247.935 172.364,246.753 C172.557,246.567 172.74,246.369 172.909,246.158 C174.136,244.643 174.602,242.656 174.188,240.705 L162.091,183.95 C161.388,180.644 158.272,178.148 154.842,178.148 Z M163.025,243.708 L162.998,243.582 L107.069,243.301 C106.804,243.301 106.541,243.25 106.292,243.163 L106.344,243.403 L163.025,243.708 L163.025,243.708 Z M154.842,183.118 C155.943,183.118 157.011,183.954 157.231,184.986 L169.326,241.738 C169.545,242.77 168.832,243.605 167.732,243.605 L166.984,243.602 L167.404,245.575 C167.623,246.607 166.91,247.442 165.81,247.442 L105.147,247.138 C104.046,247.138 102.978,246.303 102.759,245.27 L90.648,188.823 C90.429,187.791 91.142,186.955 92.242,186.955 L92.993,186.955 L92.571,184.986 C92.351,183.954 93.064,183.118 94.164,183.118 L103.497,183.118 L104.291,186.853 L96.949,186.853 L96.971,186.955 L101.575,186.955 L102.369,190.69 L97.774,190.69 L108.266,239.566 L162.204,239.856 L151.723,190.69 L144.381,190.69 L143.587,186.955 L152.92,186.955 C153.185,186.955 153.448,187.006 153.697,187.094 L153.645,186.853 L146.303,186.853 L145.51,183.118 L154.842,183.118 L154.842,183.118 Z"
                          id="Fill-31" fill="#0A0B09"></path>
                    <path d="M123.27,178.268 C122.618,178.268 122.093,178.473 121.791,178.846 C121.459,179.256 121.482,179.772 121.558,180.134 C121.875,181.623 123.582,182.93 125.212,182.93 C125.864,182.93 126.389,182.725 126.691,182.352 C127.023,181.941 127,181.425 126.924,181.063 C126.608,179.574 124.9,178.268 123.27,178.268 Z M117.571,194.014 C112.493,194.014 107.717,190.252 106.698,185.449 L105.993,182.139 C105.726,180.885 106.016,179.618 106.788,178.663 C107.582,177.683 108.811,177.12 110.159,177.12 L114.008,177.12 C114.342,175.728 115.028,174.461 116.026,173.426 C117.667,171.724 120.013,170.786 122.631,170.786 C126.953,170.786 131.227,173.376 133.345,177.12 L137.795,177.12 C140.197,177.12 142.459,178.916 142.946,181.21 L143.65,184.519 C144.167,186.953 143.648,189.287 142.186,191.093 C140.682,192.949 138.305,194.014 135.663,194.014 L117.571,194.014 L117.571,194.014 Z"
                          id="Fill-32" fill="#0A0B09"></path>
                    <path d="M122.631,168.549 C119.401,168.549 116.484,169.729 114.416,171.873 C113.562,172.759 112.886,173.776 112.405,174.883 L110.159,174.883 C108.133,174.883 106.272,175.748 105.051,177.255 C103.852,178.736 103.398,180.686 103.805,182.603 L104.509,185.915 C105.74,191.71 111.478,196.25 117.571,196.25 L135.663,196.25 C138.983,196.25 141.993,194.883 143.924,192.5 C145.791,190.194 146.489,187.116 145.837,184.055 L145.134,180.744 C144.423,177.402 141.269,174.883 137.795,174.883 L134.584,174.883 C131.918,171.045 127.37,168.549 122.631,168.549 Z M125.212,185.166 C127.902,185.166 129.648,183.121 129.112,180.599 C128.575,178.076 125.96,176.031 123.27,176.031 C120.58,176.031 118.834,178.076 119.37,180.599 C119.906,183.121 122.523,185.166 125.212,185.166 L125.212,185.166 Z M122.631,173.022 C126.64,173.022 130.541,175.765 131.938,179.356 L137.795,179.356 C139.159,179.356 140.487,180.394 140.758,181.674 L141.462,184.984 C142.26,188.736 139.663,191.777 135.663,191.777 L117.571,191.777 C113.571,191.777 109.682,188.736 108.885,184.984 L108.181,181.674 C107.908,180.394 108.794,179.356 110.159,179.356 L116.017,179.356 C115.886,175.765 118.621,173.022 122.631,173.022 L122.631,173.022 Z"
                          id="Fill-33" fill="#0A0B09"></path>
                    <path d="M110.481,237.525 L100.237,189.464 L109.332,189.464 L109.994,190.476 C111.514,192.797 112.776,193.621 116.835,193.621 L138.216,193.621 C142.52,193.621 142.678,192.79 142.965,191.282 L143.312,189.464 L151.764,189.464 L162.359,237.525 L110.481,237.525"
                          id="Fill-34" fill="#0A0B09"></path>
                    <path d="M153.562,187.227 L141.459,187.227 L140.768,190.864 C140.742,190.999 140.717,191.104 140.696,191.186 C140.364,191.269 139.645,191.384 138.216,191.384 L116.836,191.384 C113.262,191.384 112.854,190.76 111.865,189.251 L110.541,187.227 L97.473,187.227 L108.671,239.763 L165.142,239.763 L153.562,187.227 Z M149.967,191.7 L159.575,235.289 L112.291,235.289 L103,191.7 L108.123,191.7 C110.116,194.746 112.137,195.857 116.836,195.857 L138.216,195.857 C142.914,195.857 144.568,194.824 145.162,191.7 L149.967,191.7 L149.967,191.7 Z"
                          id="Fill-35" fill="#0A0B09"></path>
                    <path d="M165.81,247.442 L105.147,247.138 C104.046,247.138 102.978,246.303 102.759,245.27 L90.649,188.823 C90.429,187.791 91.142,186.955 92.242,186.955 L101.575,186.955 L102.369,190.69 L95.028,190.69 L106.344,243.403 L163.025,243.708 L151.723,190.69 L144.381,190.69 L143.587,186.955 L152.92,186.955 C154.021,186.955 155.089,187.791 155.308,188.823 L167.404,245.575 C167.623,246.607 166.91,247.442 165.81,247.442"
                          id="Fill-36" fill="#0A0B09"></path>
                    <polyline id="Fill-37" fill="#FFFFFE"
                              points="107.774 181.441 108.379 180.273 108.379 181.395 108.022 181.591 107.774 181.441"></polyline>
                    <path d="M167.732,243.605 L107.069,243.301 C105.968,243.301 104.901,242.466 104.681,241.434 L92.571,184.986 C92.351,183.954 93.064,183.119 94.164,183.119 L103.497,183.119 L104.291,186.853 L96.949,186.853 L108.266,239.566 L164.948,239.871 L153.646,186.853 L146.304,186.853 L145.51,183.119 L154.843,183.119 C155.944,183.119 157.011,183.954 157.231,184.986 L169.326,241.738 C169.546,242.77 168.832,243.605 167.732,243.605"
                          id="Fill-38" fill="#ABACA8"></path>
                    <path d="M135.036,192.973 L116.943,192.973 C112.944,192.973 109.054,189.932 108.257,186.18 L107.553,182.869 C107.281,181.589 108.167,180.552 109.531,180.552 L116.842,180.552 L120.539,187.091 L129.117,187.091 L129.62,180.552 L137.167,180.552 C138.532,180.552 139.859,181.589 140.131,182.869 L140.834,186.18 C141.632,189.932 139.035,192.973 135.036,192.973"
                          id="Fill-39" fill="#FFFFFE"></path>
                    <path d="M128.484,181.794 C127.948,179.271 125.332,177.227 122.643,177.227 C119.952,177.227 118.207,179.271 118.743,181.794 C119.28,184.316 121.895,186.361 124.584,186.361 C127.274,186.361 129.02,184.316 128.484,181.794 Z M125.224,189.37 C120.762,189.37 116.425,185.978 115.535,181.794 C114.646,177.609 117.541,174.218 122.003,174.218 C126.464,174.218 130.802,177.609 131.692,181.794 C132.581,185.978 129.685,189.37 125.224,189.37 L125.224,189.37 Z"
                          id="Fill-40" fill="#FFFFFE"></path>
                    <path d="M135.663,191.777 L117.571,191.777 C113.571,191.777 109.682,188.736 108.885,184.984 L108.181,181.674 C107.908,180.394 108.794,179.356 110.159,179.356 L117.47,179.356 L121.166,185.895 L129.744,185.895 L130.247,179.356 L137.795,179.356 C139.159,179.356 140.487,180.394 140.758,181.674 L141.462,184.984 C142.26,188.736 139.663,191.777 135.663,191.777"
                          id="Fill-41" fill="#ABACA8"></path>
                    <path d="M129.112,180.599 C128.575,178.076 125.96,176.031 123.271,176.031 C120.58,176.031 118.835,178.076 119.371,180.599 C119.907,183.121 122.523,185.166 125.212,185.166 C127.902,185.166 129.648,183.121 129.112,180.599 Z M125.852,188.175 C121.39,188.175 117.052,184.783 116.163,180.599 C115.274,176.414 118.169,173.022 122.631,173.022 C127.092,173.022 131.43,176.414 132.32,180.599 C133.209,184.783 130.313,188.175 125.852,188.175 L125.852,188.175 Z"
                          id="Fill-42" fill="#ABACA8"></path>
                    <path d="M145.162,191.701 C144.568,194.824 142.914,195.857 138.216,195.857 L116.836,195.857 C112.138,195.857 110.117,194.746 108.123,191.701 L103,191.701 L112.291,235.289 L159.575,235.289 L149.967,191.701 L145.162,191.701"
                          id="Fill-43" fill="#FFFFFE"></path>
                    <path d="M124.522,213.532 L114.089,213.532 C113.492,213.532 112.906,213.049 112.779,212.452 L110.562,202.019 C110.435,201.423 110.816,200.938 111.412,200.938 L121.845,200.938 C122.442,200.938 123.028,201.423 123.155,202.019 L125.372,212.452 C125.499,213.049 125.118,213.532 124.522,213.532"
                          id="Fill-44" fill="#0A0B09"></path>
                    <path d="M149.918,213.532 L139.486,213.532 C138.889,213.532 138.303,213.049 138.176,212.452 L135.958,202.019 C135.831,201.423 136.212,200.938 136.809,200.938 L147.241,200.938 C147.838,200.938 148.425,201.423 148.551,202.019 L150.769,212.452 C150.896,213.049 150.515,213.532 149.918,213.532"
                          id="Fill-45" fill="#0A0B09"></path>
                    <path d="M132.876,207.235 C132.876,206.205 132.041,205.37 131.011,205.37 C129.98,205.37 129.145,206.205 129.145,207.235 C129.145,208.267 129.98,209.102 131.011,209.102 C132.041,209.102 132.876,208.267 132.876,207.235"
                          id="Fill-46" fill="#0A0B09"></path>
                    <path d="M128.152,228.896 L117.718,228.896 C117.121,228.896 116.535,228.413 116.408,227.816 L114.191,217.383 C114.064,216.786 114.445,216.303 115.041,216.303 L125.475,216.303 C126.071,216.303 126.657,216.786 126.784,217.383 L129.002,227.816 C129.128,228.413 128.747,228.896 128.152,228.896"
                          id="Fill-47" fill="#0A0B09"></path>
                    <path d="M153.548,228.896 L143.115,228.896 C142.518,228.896 141.932,228.413 141.805,227.816 L139.587,217.383 C139.46,216.786 139.841,216.303 140.438,216.303 L150.871,216.303 C151.468,216.303 152.054,216.786 152.181,217.383 L154.399,227.816 C154.526,228.413 154.145,228.896 153.548,228.896"
                          id="Fill-48" fill="#0A0B09"></path>
                    <path d="M136.243,221.921 C136.243,220.891 135.408,220.056 134.378,220.056 C133.347,220.056 132.512,220.891 132.512,221.921 C132.512,222.952 133.347,223.787 134.378,223.787 C135.408,223.787 136.243,222.952 136.243,221.921"
                          id="Fill-49" fill="#0A0B09"></path>
                    <path d="M117.285,211.979 C116.878,211.979 116.472,211.824 116.161,211.514 L108.859,204.211 C107.345,202.697 107.345,200.235 108.859,198.722 C109.592,197.988 110.567,197.584 111.604,197.584 C112.64,197.584 113.615,197.988 114.348,198.722 L117.285,201.659 L128.845,190.1 C129.578,189.366 130.553,188.962 131.589,188.962 C132.626,188.962 133.601,189.366 134.334,190.1 C135.848,191.613 135.848,194.075 134.334,195.589 L118.409,211.514 C118.099,211.824 117.693,211.979 117.285,211.979"
                          id="Fill-50" fill="#61B510"></path>
                    <path d="M131.589,187.372 C130.128,187.372 128.754,187.941 127.721,188.975 L117.285,199.41 L115.472,197.598 C114.439,196.563 113.065,195.994 111.603,195.994 C110.142,195.994 108.768,196.563 107.734,197.598 C106.7,198.631 106.131,200.005 106.131,201.467 C106.131,202.928 106.7,204.302 107.734,205.335 L115.036,212.638 C115.633,213.234 116.442,213.569 117.285,213.569 C118.128,213.569 118.937,213.234 119.533,212.638 L135.458,196.713 C136.492,195.68 137.061,194.306 137.061,192.844 C137.061,191.383 136.492,190.009 135.458,188.975 C134.425,187.941 133.051,187.372 131.589,187.372 Z M131.589,190.552 C132.176,190.552 132.762,190.775 133.21,191.224 C134.106,192.119 134.106,193.569 133.21,194.465 L117.285,210.39 L109.983,203.087 C109.087,202.191 109.087,200.741 109.983,199.846 C110.43,199.398 111.017,199.174 111.603,199.174 C112.19,199.174 112.776,199.398 113.224,199.846 L117.285,203.907 L129.969,191.224 C130.416,190.775 131.003,190.552 131.589,190.552 L131.589,190.552 Z"
                          id="Fill-51" fill="#0A0B09"></path>
                    <path d="M146.483,226.789 C146.075,226.789 145.669,226.634 145.359,226.323 L138.056,219.02 C136.542,217.507 136.542,215.045 138.056,213.531 C138.789,212.798 139.764,212.394 140.801,212.394 C141.837,212.394 142.812,212.798 143.545,213.531 L146.483,216.469 L158.042,204.909 C158.776,204.176 159.75,203.771 160.786,203.771 C161.823,203.771 162.798,204.176 163.531,204.909 C165.045,206.423 165.045,208.885 163.531,210.398 L147.607,226.323 C147.296,226.634 146.89,226.789 146.483,226.789"
                          id="Fill-52" fill="#61B510"></path>
                    <path d="M160.786,202.182 C159.325,202.182 157.951,202.751 156.918,203.785 L146.483,214.221 L144.669,212.407 C143.636,211.374 142.262,210.805 140.8,210.805 C139.339,210.805 137.965,211.374 136.931,212.407 C135.898,213.44 135.328,214.814 135.328,216.276 C135.328,217.737 135.898,219.111 136.931,220.145 L144.234,227.448 C144.83,228.044 145.639,228.379 146.483,228.379 C147.325,228.379 148.134,228.044 148.731,227.448 L164.656,211.522 C165.69,210.489 166.259,209.115 166.259,207.653 C166.259,206.192 165.69,204.818 164.656,203.785 C163.622,202.751 162.248,202.182 160.786,202.182 Z M160.786,205.361 C161.373,205.361 161.959,205.585 162.407,206.033 C163.303,206.929 163.303,208.379 162.407,209.274 L146.483,225.199 L139.18,217.896 C138.284,217.001 138.284,215.551 139.18,214.655 C139.627,214.208 140.214,213.984 140.8,213.984 C141.387,213.984 141.973,214.208 142.421,214.655 L146.483,218.717 L159.166,206.033 C159.614,205.585 160.2,205.361 160.786,205.361 L160.786,205.361 Z"
                          id="Fill-53" fill="#0A0B09"></path>
                    <polyline id="Fill-54" fill="#0A0B09"
                              points="143.364 212.385 145.778 215.28 147.679 213.495 146.642 211.52 143.364 212.385"></polyline>
                </g>
            </g>
        </g>
    </g>
</svg>