<?xml version="1.0" standalone="no"?>
<!DOCTYPE svg PUBLIC "-//W3C//DTD SVG 1.1//EN" "http://www.w3.org/Graphics/SVG/1.1/DTD/svg11.dtd" >
<svg xmlns="http://www.w3.org/2000/svg">
    <metadata>Generated by IcoMoon</metadata>
    <defs>
        <font id="DKPoolsIconset" horiz-adv-x="1024">
            <font-face units-per-em="1024" ascent="960" descent="-64"/>
            <missing-glyph horiz-adv-x="1024"/>
            <glyph unicode="&#x20;" horiz-adv-x="512" d=""/>
            <glyph unicode="&#xe900;" glyph-name="circle-check"
                   d="M512 960c282.77 0 512-229.23 512-512s-229.23-512-512-512c-282.77 0-512 229.23-512 512s229.23 512 512 512zM722.745 685.255l-274.745-274.745-146.745 146.745-90.51-90.51 237.255-237.255 365.255 365.255-90.51 90.51z"/>
            <glyph unicode="&#xe901;" glyph-name="info"
                   d="M512-32c-265.097 0-480 214.903-480 480s214.903 480 480 480c265.097 0 480-214.903 480-480s-214.903-480-480-480zM512 32c229.75 0 416 186.25 416 416s-186.25 416-416 416c-229.75 0-416-186.25-416-416s186.25-416 416-416zM512 704c37.945 0 64-27.793 64-64 0-37.679-28.356-64-64-64-35.635 0-64 26.329-64 64 0 37.663 28.365 64 64 64zM448 512h128v-320h-128v320z"/>
            <glyph unicode="&#xe902;" glyph-name="circle-x"
                   d="M512 960c282.77 0 512-229.23 512-512s-229.23-512-512-512c-282.77 0-512 229.23-512 512s229.23 512 512 512zM592.453 448l140.793 140.793-80.453 80.453-140.793-140.793-140.793 140.793-80.453-80.453 140.793-140.793-140.793-140.793 80.453-80.453 140.793 140.793 140.793-140.793 80.453 80.453-140.793 140.793z"/>
            <glyph unicode="&#xe903;" glyph-name="avatar"
                   d="M512-32c265.097 0 480 214.903 480 480s-214.903 480-480 480c-265.097 0-480-214.903-480-480s214.903-480 480-480zM512 411.077c-101.96 0-184.615 82.655-184.615 184.615s82.655 184.615 184.615 184.615c101.96 0 184.615-82.655 184.615-184.615s-82.655-184.615-184.615-184.615zM164.626 237.428c0.423 3.23 121.464 99.802 218.143 99.802 107.855 0 194.008 0 258.462 0 96.68 0 217.72-96.573 218.143-99.802-71.23-117.255-200.155-195.582-347.374-195.582s-276.144 78.328-347.374 195.582z"/>
            <glyph unicode="&#xe904;" glyph-name="entry-bubble-icon" horiz-adv-x="1092"
                   d="M784.546 140.8l-238.412-204.8-238.412 204.8h-171.188c-75.405 0-136.533 61.128-136.533 136.533v546.133c0 75.405 61.128 136.533 136.533 136.533h819.2c75.405 0 136.533-61.128 136.533-136.533v-546.133c0-75.405-61.128-136.533-136.533-136.533h-171.188z"/>
            <glyph unicode="&#xe905;" glyph-name="money-bag" horiz-adv-x="896"
                   d="M622.361 753.619c-8.706 2.014-17.685 2.925-26.739 2.676h-291.991c-10.806 0.103-21.544-1.4-31.847-4.399-38.417 49.21-78.125 100.228-81.157 107.192-5.87 13.499-3.6 28.91 5.977 40.339 32.163 38.503 83.060 60.573 139.603 60.573s107.44-22.070 139.605-60.576c21.391-25.583 33.476-37.318 64.196-35.247 17.656 0.918 61.204 4.63 78.973 31.603 11.707 17.748 35.842 24.012 55.492 14.47 19.648-9.567 28.284-31.794 19.873-51.157-2.999-6.884-37.315-56.8-71.985-105.474zM587.345 705.36c16.671 0.537 33.008-4.687 46.183-14.771 154.966-121.983 262.442-359.082 262.471-478.78 0-164.118-200.069-275.809-448.616-275.809s-447.384 110.552-447.384 274.67c0 120.837 110.968 357.937 265.916 479.919 13.365 9.743 29.586 14.928 46.207 14.771h275.222zM478.982 104.256v31.547c83.231 6.458 130.298 45.706 130.298 109.048 0 53.655-33.505 86.692-101.845 100.354l-28.453 5.465v88.431c27.921-3.726 47.864-22.356 48.662-44.961h74.19c-1.064 57.381-48.928 97.87-122.852 104.329v33.783h-37.228v-33.783c-79.242-5.962-126.043-45.209-126.043-106.316 0-51.916 34.303-86.195 98.122-100.106l27.921-6.21v-92.405c-33.239 3.229-55.842 21.611-57.703 46.203h-76.051c0.266-60.61 50.524-99.857 133.754-104.329v-31.050h37.228zM533.761 236.406c0-25.089-20.209-41.235-54.778-43.222v86.444c37.228-6.458 54.778-20.369 54.778-43.222zM392.826 399.108c0 22.108 20.209 38.751 48.928 40.241v-81.476c-32.176 5.962-48.928 20.369-48.928 41.235z"/>
            <glyph unicode="&#xe906;" glyph-name="dot"
                   d="M1024 448c0-282.77-229.23-512-512-512s-512 229.23-512 512c0 282.77 229.23 512 512 512s512-229.23 512-512z"/>
            <glyph unicode="&#xe907;" glyph-name="circle-check-stroke"
                   d="M512 896c-247.424 0-448-200.576-448-448s200.576-448 448-448c247.424 0 448 200.576 448 448s-200.576 448-448 448zM512 960c282.77 0 512-229.23 512-512s-229.23-512-512-512c-282.77 0-512 229.23-512 512s229.23 512 512 512zM722.745 685.255l90.51-90.51-365.255-365.255-237.255 237.255 90.51 90.51 146.745-146.745z"/>
            <glyph unicode="&#xe908;" glyph-name="alert" horiz-adv-x="1088"
                   d="M632.35 869.106l451.414-838.776c16.751-31.125 5.098-69.936-26.027-86.687-9.322-5.017-19.744-7.643-30.33-7.643h-902.829c-35.346 0-64 28.654-64 64 0 10.587 2.626 21.008 7.643 30.33l451.414 838.776c16.751 31.125 55.562 42.777 86.687 26.027 11.037-5.94 20.087-14.99 26.027-26.027zM512 640v-320h128v320h-128zM576 64c35.346 0 64 28.654 64 64s-28.654 64-64 64c-35.346 0-64-28.654-64-64s28.654-64 64-64z"/>
            <glyph unicode="&#xe909;" glyph-name="radio-selected"
                   d="M512 896c-247.424 0-448-200.576-448-448s200.576-448 448-448c247.424 0 448 200.576 448 448s-200.576 448-448 448zM512 960c282.77 0 512-229.23 512-512s-229.23-512-512-512c-282.77 0-512 229.23-512 512s229.23 512 512 512zM512 704c141.385 0 256-114.615 256-256s-114.615-256-256-256c-141.385 0-256 114.615-256 256s114.615 256 256 256z"/>
            <glyph unicode="&#xe90a;" glyph-name="radio-not-selected"
                   d="M512 896c-247.424 0-448-200.576-448-448s200.576-448 448-448c247.424 0 448 200.576 448 448s-200.576 448-448 448zM512 960c282.77 0 512-229.23 512-512s-229.23-512-512-512c-282.77 0-512 229.23-512 512s229.23 512 512 512z"/>
            <glyph unicode="&#xe90b;" glyph-name="arrow" horiz-adv-x="652"
                   d="M605.091 447.451v1.098l-498.438 501.573c-13.060 13.17-33.737 13.17-45.708 0l-51.15-51.584c-13.060-13.17-13.060-34.024 0-46.096l400.492-403.893v-1.098l-400.492-403.893c-13.060-13.17-13.060-34.024 0-46.096l51.15-51.584c13.060-13.17 33.737-13.17 45.708 0l498.438 501.573z"/>
            <glyph unicode="&#xe90c;" glyph-name="clock"
                   d="M512 0c247.424 0 448 200.576 448 448s-200.576 448-448 448c-247.424 0-448-200.576-448-448s200.576-448 448-448zM512-64c-282.77 0-512 229.23-512 512s229.23 512 512 512c282.77 0 512-229.23 512-512s-229.23-512-512-512zM704 239.933l-40.056-47.933-215.944 209.005 14.596 366.995h65.807l18.29-332.787 157.307-195.28z"/>
            <glyph unicode="&#xe90d;" glyph-name="live"
                   d="M512 256c-106.039 0-192 85.961-192 192s85.961 192 192 192c106.039 0 192-85.961 192-192s-85.961-192-192-192zM512 0c247.424 0 448 200.576 448 448s-200.576 448-448 448c-247.424 0-448-200.576-448-448s200.576-448 448-448zM512-64c-282.77 0-512 229.23-512 512s229.23 512 512 512c282.77 0 512-229.23 512-512s-229.23-512-512-512z"/>
            <glyph unicode="&#xe90e;" glyph-name="lock-icon" horiz-adv-x="896"
                   d="M128 519.249v143.684c0 164.065 143.269 297.066 320 297.066s320-133.001 320-297.066v-143.684h64c35.346 0 64-28.654 64-64v-455.249c0-35.346-28.654-64-64-64h-768c-35.346 0-64 28.654-64 64v455.249c0 35.346 28.654 64 64 64h64zM192 519.249h512v143.684c0 128.447-113.811 234.102-256 234.102s-256-105.655-256-234.102v-143.684z"/>
            <glyph unicode="&#xe90f;" glyph-name="check-not-selected"
                   d="M128 896c-35.346 0-64-28.654-64-64v-768c0-35.346 28.654-64 64-64h768c35.346 0 64 28.654 64 64v768c0 35.346-28.654 64-64 64h-768zM128 960h768c70.692 0 128-57.308 128-128v-768c0-70.692-57.308-128-128-128h-768c-70.692 0-128 57.308-128 128v768c0 70.692 57.308 128 128 128z"/>
            <glyph unicode="&#xe910;" glyph-name="check-selected"
                   d="M128 960h768c70.692 0 128-57.308 128-128v-768c0-70.692-57.308-128-128-128h-768c-70.692 0-128 57.308-128 128v768c0 70.692 57.308 128 128 128zM768 704l-320-320-128 128-64-64 192-192 384 384-64 64z"/>
            <glyph unicode="&#xe911;"
                   d="M896 448c0-212.077-171.923-384-384-384s-384 171.923-384 384c0 212.077 171.923 384 384 384s384-171.923 384-384z"/>
            <glyph unicode="&#xe912;" glyph-name="recent-icon" horiz-adv-x="1088"
                   d="M64 448c0 282.77 229.23 512 512 512s512-229.23 512-512c0-282.77-229.23-512-512-512-164.576 0-311.017 77.65-404.683 198.312l50.555 39.245c84.414-108.743 213.853-173.556 354.127-173.556 247.424 0 448 200.576 448 448s-200.576 448-448 448c-247.424 0-448-200.576-448-448h64l-96-128-96 128h64zM384 512c-35.346 0-64 28.654-64 64s28.654 64 64 64c35.346 0 64-28.654 64-64s-28.654-64-64-64zM384 256c-35.346 0-64 28.654-64 64s28.654 64 64 64c35.346 0 64-28.654 64-64s-28.654-64-64-64zM576 512c-35.346 0-64 28.654-64 64s28.654 64 64 64c35.346 0 64-28.654 64-64s-28.654-64-64-64zM576 256c-35.346 0-64 28.654-64 64s28.654 64 64 64c35.346 0 64-28.654 64-64s-28.654-64-64-64zM768 512c-35.346 0-64 28.654-64 64s28.654 64 64 64c35.346 0 64-28.654 64-64s-28.654-64-64-64zM768 256c-35.346 0-64 28.654-64 64s28.654 64 64 64c35.346 0 64-28.654 64-64s-28.654-64-64-64z"/>
            <glyph unicode="&#xe913;" glyph-name="jersey-zero" horiz-adv-x="576"
                   d="M43.845 922.602l43.845 37.398h394.603l47.284-41.85 46.424-41.85v-858.379l-44.704-40.96-45.564-40.96h-400.621l-42.985 37.398-42.125 36.508v874.407l43.845 38.289zM192 768v-640h192v640h-192z"/>
            <glyph unicode="&#xe914;"
                   d="M512 960c282.77 0 512-229.23 512-512s-229.23-512-512-512c-282.77 0-512 229.23-512 512s229.23 512 512 512zM722.745 685.255l-274.745-274.745-146.745 146.745-90.51-90.51 237.255-237.255 365.255 365.255-90.51 90.51z"/>
            <glyph unicode="&#xe915;"
                   d="M896 448c0-212.077-171.923-384-384-384s-384 171.923-384 384c0 212.077 171.923 384 384 384s384-171.923 384-384z"/>
            <glyph unicode="&#xe916;"
                   d="M512 960c282.77 0 512-229.23 512-512s-229.23-512-512-512c-282.77 0-512 229.23-512 512s229.23 512 512 512zM592.453 448l140.793 140.793-80.453 80.453-140.793-140.793-140.793 140.793-80.453-80.453 140.793-140.793-140.793-140.793 80.453-80.453 140.793 140.793 140.793-140.793 80.453 80.453-140.793 140.793z"/>
            <glyph unicode="&#xe917;" glyph-name="friend-invite-24"
                   d="M851.923 234.667c-4.839 70.246-38.745 107.012-110.247 139.632-27.362 12.513-51.069 24.804-97.647 50.048-8.972 4.864-8.972 4.864-18.037 9.77-6.13 3.314-11.737 6.332-16.993 9.142 0.387 2.363 0.811 4.867 1.281 7.58 0.987 5.654 0.987 5.654 2.376 13.676 37.307 43.37 56.744 115.516 35.473 165.667-1.028 2.508-2.151 4.922-3.361 7.247 1.443 24.141 1.67 37.036 0.641 54.432-1.765 29.3-11.481 57.226-26.83 81.952 9.898 6.321 20.422 10.59 30.422 12.026 9.178 1.797 18.455 2.964 27.775 3.495 9.326-0.449 18.608-1.617 27.775-3.495 35.9-5.677 72.729-41.267 74.89-80.241 1.232-21.29-1.132-42.685-1.132-64.085-1.336-0.327 0.209-0.764-0.924-1.202 3.189-2.73 7.922-4.802 9.258-8.297 7.117-17.684-7.922-59.283-24.174-69.762-2.243-1.582-3.799-4.048-4.321-6.852-3.293-24.674-6.482-37.019-8.846-61.792 0 0 4.838-30.894 14.712-36.244 42.387-23.034 83.637-49.015 127.772-70.505 35.284-17.247 46.807-28.385 46.882-66.71l-0.72-65.393c0.037-2.515-0.066-5.030-0.512-7.532-2.036-12.556-11.394-12.556-20.861-12.556h-64.651zM540.044 383.12c55.135-28.35 108.861-60.212 166.281-86.471 46.001-20.987 61.075-33.077 60.969-80.111l-0.988-78.45c0.030-1.986-0.118-3.971-0.441-5.931-1.326-14.169-13.046-25.115-27.294-25.49h-624.424c-14.085 0-27.841 15.273-27.841 31.427l-0.112 8.35c0 0-0.329 27.246-0.329 27.358l-0.531 42.854c0 47.469 15.297 59.225 62.419 80.652 56.458 25.713 109.924 57.464 165.181 85.813 12.752 6.483 19.127 44.281 19.127 44.281-2.97 30.329-7.263 45.469-11.445 75.707-0.753 3.418-2.804 6.411-5.722 8.35-21.125 12.854-40.715 63.729-31.581 85.373 1.87 4.271 8.033 6.812 10.892 11.533 0 26.148-3.082 52.408-1.541 78.45 2.864 47.687 54.045 92.397 97.613 98.232 11.963 2.206 24.056 3.638 36.204 4.286 12.158-0.533 24.259-1.965 36.204-4.286 46.782-6.918 94.75-50.429 97.629-98.232 1.541-26.037-1.541-52.302-2.752-79.877 4.181-3.406 10.345-5.82 12.103-10.106 9.133-21.533-10.451-72.519-31.581-85.373-2.973-1.883-5.041-4.901-5.722-8.35-4.070-30.217-8.363-45.379-11.445-75.707 0 0 6.376-37.798 19.127-44.281z"/>
            <glyph unicode="&#xe918;" glyph-name="jersey" horiz-adv-x="687"
                   d="M405.333 912.618l-60.632-11.004-57.488 10.105c-31.663 5.614-60.407 10.105-63.775 10.105-3.593 0-25.151-7.411-48.056-16.618-22.905-8.982-53.221-20.884-66.919-26.274l-25.375-9.881v-8.982c0-4.94 2.021-47.607 4.491-94.765l4.491-85.782-37.277-72.533-37.053-72.533 21.333-260.491c11.902-143.27 22.232-263.86 23.354-268.126l1.572-7.635 52.772-8.758c28.968-4.716 54.344-9.207 56.14-10.105 1.796-0.674 4.042-1.572 4.94-1.572 0.674-0.225 2.246-0.898 3.144-1.796 0.898-1.123 4.042-1.796 6.737-1.796 2.919 0 5.839-1.123 6.737-2.47 0.674-1.347 3.144-2.021 5.389-1.347s8.982 0.225 15.046-1.123c5.839-1.123 15.944-2.47 22.007-3.144 6.288-0.449 12.8-1.572 14.596-2.47 1.796-0.674 7.86-1.572 13.474-2.021s13.698-1.347 17.965-2.021c31.663-5.165 82.639-5.165 125.754 0.225 5.614 0.674 13.698 1.572 17.965 2.021s7.86 0.898 7.86 1.123c0 0.674 11.004 2.246 20.211 2.919 5.165 0.449 10.33 1.347 11.453 2.246 1.347 0.674 7.86 1.796 14.596 2.246 6.737 0.674 15.046 2.246 18.414 3.593 3.593 1.347 7.635 2.47 9.207 2.47 1.347 0 3.593 0.898 4.94 2.021 1.123 0.898 26.274 5.614 55.916 10.33s54.568 9.207 55.467 9.881c1.572 1.347 44.014 500.547 44.688 526.821 0.449 10.33-2.246 16.618-36.154 82.863l-36.604 71.635 4.94 94.316c2.695 51.874 4.491 94.54 4.267 94.765-0.674 0.674-134.063 52.772-137.656 53.895-1.123 0.449-29.418-4.267-62.877-10.33z"/>
            <glyph unicode="&#xe919;" glyph-name="hat---1"
                   d="M406.528 821.146c-4.506-2.253-10.24-6.144-12.698-8.806-5.53-5.939-10.854-18.432-10.854-24.986 0-4.915-0.205-4.915-30.106-6.349-103.014-4.71-167.322-20.070-215.040-51.814-50.176-33.178-82.125-89.907-95.642-170.598-6.554-39.117-7.578-58.163-8.806-153.805l-1.024-97.69 7.782-1.229c25.395-3.891 228.762-29.901 229.376-29.286 0.41 0.41-0.205 30.72-1.434 67.174-4.915 137.83 2.458 224.461 24.781 290.816 21.709 65.536 56.934 107.93 111.821 134.963 16.794 8.397 19.661 9.216 37.274 9.83l18.842 0.819v8.602c0 25.395-30.515 43.622-54.272 32.358zM541.901 617.984c-23.962-6.144-46.49-25.6-59.392-52.019-11.059-22.323-14.131-38.502-12.902-68.813 0.819-22.118 1.843-27.853 7.168-42.598 7.168-19.046 20.89-39.936 32.563-49.152 43.418-33.997 99.123-18.432 125.542 35.226 37.274 75.571-2.048 174.285-71.066 178.381-7.578 0.41-17.408 0-21.914-1.024zM666.624 312.627c-61.85-10.854-213.197-25.805-309.248-30.515-71.475-3.482-82.944-4.301-81.715-6.349 1.638-2.867 65.741-47.923 96.051-67.789 51.61-33.792 79.053-47.104 138.24-67.379 25.805-9.011 84.173-26.419 87.859-26.419 0.819 0 2.458 9.421 3.891 21.094 6.554 54.886 30.515 112.23 64.307 154.214 22.528 27.648 21.094 25.395 15.565 25.19-2.458-0.205-9.216-1.024-14.95-2.048z"/>
            <glyph unicode="&#xe91a;" glyph-name="tennis3" horiz-adv-x="761"
                   d="M281.835 769.104c-22.735-4.134-24.426-4.885-24.426-8.455 0-1.879-1.315-3.57-2.818-3.57-4.321 0-16.159-10.522-29.123-26.305-3.57-4.321-8.079-9.582-9.77-11.649-1.879-2.067-3.758-5.449-4.321-7.328-0.752-2.067-1.879-3.57-2.818-3.57-2.255 0-9.207-19.165-12.401-33.82-3.946-18.789-3.382-32.693 3.194-79.853 1.879-12.401 10.71-45.845 12.964-47.912 0.564-0.564 3.006-7.328 5.637-15.031 2.443-7.703 5.073-14.468 5.637-15.031 1.127-1.127 5.449-15.407 6.952-23.486 0.564-3.006 1.691-6.012 2.255-6.576 2.067-1.503 5.825-23.11 7.14-39.833 0.564-8.643 1.691-16.91 2.443-18.413 3.57-7.14-5.637-98.83-10.898-108.412-1.315-2.255-2.255-6.2-2.255-8.831s-0.752-4.885-1.879-4.885c-0.939 0-1.879-2.067-1.879-4.509 0-2.63-0.752-5.073-1.691-5.637s-2.63-4.885-3.758-9.77c-2.63-10.522-13.34-32.129-18.789-37.766-2.255-2.255-3.946-5.261-3.946-6.764 0-1.315-2.067-3.758-4.697-5.073s-4.697-3.194-4.697-4.134c0-0.752-1.315-1.503-2.818-1.503s-2.818-0.752-2.818-1.879c0-0.939-1.315-1.879-2.818-1.879s-2.818-0.752-2.818-1.879c0-0.939-1.691-1.879-3.758-1.879s-3.758-0.752-3.758-1.503c0-0.939-3.006-2.63-6.576-4.134s-6.576-3.194-6.576-4.134c0-0.752-2.255-1.503-4.885-1.503s-4.321-0.752-3.57-1.879c0.564-1.127-0.939-1.879-3.57-1.879s-5.261-0.752-5.825-1.879c-0.564-0.939-4.509-1.879-8.643-1.879-3.946 0-7.328-0.752-7.328-1.879 0-0.939-1.879-1.879-4.134-1.879-4.134-0.188-4.134-0.376 1.315-4.885 22.735-19.353 65.949-42.839 98.642-53.924 38.33-13.152 53.549-15.407 104.279-15.407 40.021 0 47.348 0.564 64.822 4.321 37.202 8.079 78.162 24.614 107.473 43.215l10.898 6.952v16.159c0 11.086 1.127 20.104 3.758 27.996 2.067 6.388 3.758 13.34 3.758 15.031 0 1.879 2.067 7.891 4.697 13.528 2.63 5.449 5.261 12.777 5.825 16.159 0.564 3.194 1.879 6.012 2.818 6.012s1.691 1.879 1.691 4.321c0 2.255 2.255 7.516 4.697 11.649 2.63 4.134 4.697 9.019 4.697 10.898 0 1.691 0.752 3.194 1.503 3.194 0.939 0 3.194 3.382 5.073 7.516s4.134 7.516 4.885 7.516c0.939 0 2.443 3.382 3.57 7.516 1.127 3.946 2.63 7.703 3.57 8.267 0.752 0.564 2.63 4.885 3.946 9.582s3.006 8.455 3.758 8.455c0.939 0 3.194 5.261 5.449 11.837 2.067 6.388 6.2 18.413 9.207 26.68 12.401 33.257 13.152 36.075 16.346 63.883 3.382 28.559 3.57 57.87 0.939 113.673-2.63 52.046-3.382 56.179-15.031 71.774-45.845 61.064-115.552 105.218-192.587 121.941-15.407 3.194-26.305 4.134-60.125 4.509-22.735 0.376-43.403 0.188-46.033-0.188zM205.739 749.751c-103.715-41.148-176.617-127.201-200.479-236.929-3.758-17.474-4.321-24.801-4.321-64.822s0.564-47.348 4.321-64.822c13.152-60.313 42.087-115.74 82.859-158.203 8.079-8.455 13.34-11.273 13.34-7.14 0 1.127 4.134 1.879 9.207 1.879 5.261 0 9.958 0.939 10.522 1.879 0.564 1.127 3.194 1.879 5.825 1.879 2.443 0 4.509 0.939 4.509 1.879 0 1.127 1.315 1.879 2.818 1.879s2.818 0.939 2.818 1.879c0 1.127 2.63 1.879 5.825 1.879s5.261 0.752 4.509 1.879c-0.564 1.127 0.564 1.879 2.63 1.879 2.255 0 3.946 0.939 3.946 1.879 0 1.127 1.127 1.879 2.443 1.879s4.321 1.691 6.576 3.758c2.255 2.067 4.697 3.758 5.449 3.758 3.57 0.188 19.916 24.050 25.365 37.014 2.818 6.576 8.455 23.298 9.582 27.808 0.188 1.127 1.503 4.509 2.63 7.516 3.57 9.019 9.77 52.421 10.898 77.035 0.752 12.964 0.376 29.311-0.752 38.517-3.382 26.492-8.455 52.609-9.958 52.609-0.752 0-1.503 1.879-1.503 4.134 0 4.697-5.825 24.614-7.703 25.929-0.752 0.564-1.691 3.57-2.255 6.764s-2.067 8.267-3.57 11.273c-1.503 3.006-4.697 14.843-6.952 26.117-5.449 27.62-5.261 26.68-8.455 38.893-1.691 6.012-3.57 22.547-4.134 36.826-1.127 23.486-0.939 27.244 2.818 40.021 7.14 23.486 8.455 26.868 10.71 29.874 1.127 1.503 4.509 7.328 7.328 12.964 2.818 5.449 7.14 12.213 9.582 15.031 2.443 2.63 4.509 5.449 4.509 6.2 0 0.939 1.127 1.503 2.63 1.503s3.382 1.691 3.946 3.758c0.564 2.067 2.255 3.758 3.758 3.758 1.315 0 2.818 1.315 3.57 2.818 1.315 3.57 0.752 3.57-14.843-2.63zM608.012 588.917c0.564-6.2 1.503-29.874 2.067-52.609 0.939-43.215-1.315-79.853-6.2-98.642-1.503-5.637-3.194-12.777-3.758-15.971-2.067-13.34-5.261-24.989-8.455-31.378-2.067-3.946-3.57-8.267-3.57-9.77s-1.127-3.946-2.443-5.261c-1.127-1.315-4.134-7.516-6.2-13.716-6.576-18.413-9.019-24.238-11.086-26.492-0.939-1.127-4.321-7.516-7.328-14.092-2.818-6.576-8.079-18.225-11.649-25.741s-6.388-14.843-6.388-16.346c0-1.503-0.752-2.818-1.503-2.818-0.939 0-3.758-4.885-6.576-10.71-14.843-33.069-14.843-32.693-15.783-53.924l-1.127-20.48 5.637 3.946c3.194 2.255 12.213 10.146 20.104 17.474 47.348 44.154 80.981 104.467 95.448 170.792 3.758 17.474 4.321 24.801 4.321 64.822s-0.564 47.348-4.321 64.822c-5.637 25.553-15.783 55.428-24.989 73.277l-7.328 14.092 1.127-11.273z"/>
            <glyph unicode="&#xe91b;" glyph-name="jersey3" horiz-adv-x="687"
                   d="M204.8 916.884c-6.512-2.695-11.453-5.839-11.004-7.186s34.358-15.944 75.453-32.112l74.779-29.867 157.418 61.53-12.126 5.389c-6.737 2.919-15.719 5.839-20.211 6.512s-33.235-3.368-66.695-9.207l-58.611-10.554-57.937 10.33c-31.888 5.614-60.632 10.105-63.551 9.881-3.144 0-11.004-2.246-17.516-4.716zM571.733 878.484c-0.449-1.347-3.144-48.281-6.063-104.196l-4.94-101.277 51.2-96.337c28.070-52.772 51.425-96.561 51.874-97.011 2.246-2.246 2.919 2.695 4.491 28.968l1.347 28.070-72.758 141.474 3.593 81.965c2.021 45.137 4.267 88.028 4.94 95.439l1.347 13.698-17.067 6.063c-12.575 4.267-17.516 5.165-17.965 3.144zM96.112 873.993c-11.228-4.042-13.025-5.389-13.025-10.33 0-3.144 2.021-45.811 4.716-94.989l4.491-88.926-37.277-72.982-37.277-73.207 1.572-17.516c0.898-9.656 2.246-19.537 3.144-21.782 1.123-3.144 14.372 19.761 51.649 88.702l50.077 92.968-3.818 86.456c-4.491 102.4-5.614 116.772-8.982 116.547-1.347 0-8.309-2.246-15.27-4.94z"/>
            <glyph unicode="&#xe91c;" glyph-name="jersey2" horiz-adv-x="687"
                   d="M410.947 913.74c-30.316-5.389-57.263-10.33-59.958-11.004l-5.165-1.123v-948.323l11.902 1.796c6.288 0.898 17.291 2.021 24.028 2.246 6.737 0.449 18.414 1.572 25.825 2.47 7.411 0.674 16.618 1.796 20.211 2.246 3.818 0.225 6.737 0.674 6.737 0.898 0 0.674 10.554 2.021 20.211 2.919 5.165 0.449 10.33 1.347 11.453 2.246 1.347 0.674 7.86 1.796 14.596 2.246 6.737 0.674 15.046 2.246 18.414 3.593 3.593 1.347 7.635 2.47 9.207 2.47 1.347 0 3.593 0.898 4.94 2.021 1.123 0.898 26.274 5.614 55.916 10.33s54.568 9.207 55.467 9.881c1.572 1.347 44.014 500.547 44.688 526.821 0.449 10.33-2.246 16.618-36.154 82.863l-36.604 71.635 4.94 94.316c2.695 51.874 4.491 94.54 4.267 94.765-0.674 0.674-134.063 52.772-137.656 53.895-1.123 0.449-26.947-3.818-57.263-9.207z"/>
            <glyph unicode="&#xe91d;" glyph-name="hat---2"
                   d="M406.528 821.146c-4.506-2.253-10.24-6.144-12.698-8.806-5.53-6.144-10.854-18.432-10.854-25.395 0-4.506-0.819-5.12-7.578-5.12-17.818 0-74.957-4.301-96.87-7.373-78.234-10.445-131.072-32.358-168.755-69.837-39.936-39.526-61.235-91.955-72.090-177.152-2.253-18.432-3.482-51.61-4.301-122.675l-1.024-97.69 7.782-1.229c4.506-0.614 58.573-7.782 120.218-15.565l112.435-14.541 48.333 2.253c191.898 8.602 388.096 32.563 436.224 53.248l10.445 4.506 0.614 56.73c1.024 93.389-1.229 161.178-6.349 189.44-16.998 95.232-62.464 150.323-145.818 176.947-35.84 11.469-64.307 15.974-142.541 22.323l-12.902 1.024v7.373c0 24.576-30.925 42.598-54.272 31.539z"/>
            <glyph unicode="&#xe91e;" glyph-name="hat---3"
                   d="M765.952 339.866c0-3.072-19.251-10.65-39.731-15.77-63.283-15.974-234.496-35.43-368.845-41.984-79.667-3.891-83.354-4.096-80.896-7.168 7.168-8.602 116.122-81.51 149.504-99.942 42.803-23.552 141.926-56.115 216.064-70.861 60.416-12.083 74.957-13.517 139.264-13.517 65.741 0 74.342 1.024 122.88 14.336 59.597 16.384 91.341 40.346 94.618 71.475 1.638 15.77-4.71 28.672-21.709 44.646-16.384 15.36-22.938 19.251-124.109 73.728-94.822 51.2-87.040 47.309-87.040 45.056z"/>
            <glyph unicode="&#xe91f;" glyph-name="hat---1-copy"
                   d="M589.21 822.784c-14.95-4.506-26.010-19.046-26.010-34.406v-8.192l19.046-0.819c17.408-0.614 20.275-1.434 37.069-9.83 54.886-27.034 90.112-69.427 111.821-134.963 22.323-66.355 29.696-152.986 24.781-290.816-1.229-36.454-1.843-66.765-1.434-67.174 0.614-0.614 203.981 25.395 229.376 29.286l7.782 1.229-1.024 97.69c-1.229 95.642-2.253 114.688-8.806 153.805-11.059 66.15-34.202 115.712-68.813 148.685-49.971 47.309-117.76 67.994-241.664 73.728l-30.31 1.434v5.325c-0.205 7.168-6.554 20.685-12.493 26.214-10.445 9.421-25.6 12.902-39.322 8.806zM447.898 617.984c-24.166-6.144-45.466-24.781-58.778-51.61-19.251-39.322-19.251-86.63 0-125.747 26.419-53.658 82.125-69.222 125.542-35.226 11.674 9.216 25.395 30.106 32.563 49.152 5.325 14.746 6.349 20.48 7.168 42.598 1.229 30.31-1.843 46.49-12.902 68.813-15.565 31.744-41.984 51.2-71.475 53.043-7.987 0.41-17.818 0-22.118-1.024zM341.402 310.17c2.048-2.662 9.421-12.083 16.589-20.685 33.792-41.984 57.754-99.328 64.307-154.214 1.434-11.674 3.072-21.094 3.891-21.094 3.686 0 62.054 17.408 87.859 26.419 59.187 20.275 86.63 33.587 138.24 67.379 30.31 19.866 94.413 64.922 96.051 67.789 1.229 2.048-10.24 2.867-81.715 6.349-96.051 4.71-231.424 17.818-305.152 29.696-24.576 4.096-24.576 4.096-20.070-1.638z"/>
            <glyph unicode="&#xe920;" glyph-name="hat---2-copy"
                   d="M589.21 822.784c-14.541-4.301-26.010-19.046-26.010-33.382v-7.168l-12.698-1.024c-78.438-6.349-106.906-10.854-142.746-22.323-83.354-26.624-128.819-81.715-145.818-176.947-5.12-28.262-7.373-96.051-6.349-189.44l0.614-56.73 10.445-4.506c48.128-20.685 244.326-44.646 436.224-53.248l48.333-2.253 112.435 14.541c61.645 7.782 115.712 14.95 120.218 15.565l7.782 1.229-1.024 97.69c-1.229 101.581-2.662 124.109-11.878 168.755-24.781 122.88-93.594 182.067-233.267 200.909-21.914 3.072-79.053 7.373-96.666 7.373-7.168 0-7.782 0.41-7.782 5.734-0.205 7.373-6.349 20.89-12.493 26.419-10.445 9.421-25.6 12.902-39.322 8.806z"/>
            <glyph unicode="&#xe921;" glyph-name="hat---3-copy"
                   d="M173.875 296.448c-105.882-57.139-110.592-60.006-126.976-75.366-16.998-15.974-23.347-28.877-21.709-44.646 3.277-31.13 35.021-55.091 94.618-71.475 48.538-13.312 57.139-14.336 122.88-14.336 64.307 0 78.848 1.434 139.264 13.517 74.138 14.746 173.261 47.309 216.064 70.861 33.382 18.432 142.336 91.341 149.504 99.942 2.458 3.072-1.229 3.277-80.896 7.168-185.958 9.011-387.891 37.069-407.347 56.32-2.253 2.253-15.974-4.506-85.402-41.984z"/>
        </font>
</defs>
</svg>
